<svg class="coast" viewBox="0 0 1600 1000" fill="none" xmlns="http://www.w3.org/2000/svg" aria-hidden="true" preserveAspectRatio="xMidYMid slice">
<g class="coast__sea">
<path d="M1783.7 1352.2 L1782.7 1349.1 L1782.5 1347.0 L1743.1 1350.7 L1739.8 1341.2 L1737.8 1329.0 L1735.8 1316.6 L1734.2 1306.9 L1732.4 1295.9 L1732.5 1281.9 L1732.6 1271.9 L1732.7 1261.3 L1732.7 1255.7 L1734.5 1243.6 L1736.0 1232.9 L1738.0 1222.4 L1738.9 1217.6 L1741.3 1204.5 L1742.2 1183.5 L1742.5 1161.2 L1741.0 1144.6 L1740.0 1142.8 L1739.4 1130.2 L1739.2 1112.1 L1741.1 1092.3 L1739.7 1083.3 L1737.3 1081.3 L1735.0 1081.1 L1733.3 1079.0 L1733.6 1074.3 L1734.1 1067.5 L1736.3 1049.4 L1736.6 1040.2 L1736.8 1035.8 L1737.7 1021.9 L1732.1 1021.5 L1725.5 1020.8 L1728.1 1010.4 L1725.4 994.9 L1726.5 984.9 L1729.5 970.0 L1733.3 946.2 L1736.3 935.9 L1734.9 920.6 L1734.8 918.8 L1721.1 919.3 L1716.6 919.4 L1705.2 907.7 L1683.5 891.9 L1669.3 886.4 L1664.3 880.2 L1661.6 874.7 L1654.9 856.1 L1650.2 839.8 L1645.8 819.1 L1640.7 797.3 L1635.8 777.6 L1632.9 761.4 L1630.0 751.9 L1625.3 742.1 L1620.2 733.3 L1611.2 722.9 L1603.0 716.5 L1598.6 722.0 L1597.3 721.0 L1586.9 718.6 L1581.5 712.3 L1572.5 706.8 L1559.9 710.1 L1558.1 708.1 L1535.1 687.7 L1533.0 685.9 L1507.3 661.9 L1505.1 659.9 L1474.5 634.2 L1472.0 637.1 L1467.9 631.7 L1466.0 629.2 L1464.3 627.2 L1462.0 624.6 L1459.6 622.5 L1453.4 615.2 L1450.6 613.1 L1445.2 607.8 L1441.9 604.6 L1435.9 597.3 L1433.9 581.8 L1429.9 561.0 L1422.6 524.1 L1413.7 480.0 L1411.2 469.2 L1404.4 435.6 L1403.9 433.0 L1399.8 411.6 L1396.7 399.6 L1394.0 386.3 L1400.8 381.8 L1395.1 343.9 L1393.3 339.3 L1392.5 337.3 L1395.3 289.9 L1401.3 266.3 L1388.3 266.1 L1388.3 263.3 L1391.5 237.0 L1395.5 215.4 L1397.0 195.6 L1398.9 153.4 L1400.1 151.7 L1384.6 147.1 L1382.7 127.9 L1385.6 102.1 L1389.3 90.9 L1394.0 90.8 L1395.3 83.2 L1387.4 82.0 L1380.3 70.3 L1379.0 61.3 L1379.6 43.8 L1383.1 22.7 L1393.3 -9.4 L1403.6 -33.9 L1414.1 -55.9 L1421.0 -74.7 L1425.5 -92.7 L1428.4 -102.3 L1430.4 -114.6 L1430.2 -128.8 L1430.1 -132.0 L1420.2 -135.1 L1418.4 -174.1 L1428.4 -210.3 L1443.4 -255.0 L1453.9 -283.9 L1472.0 -318.7 L1483.4 -340.7 L1600 -340.7 L1600 1352.2 Z"/>
</g>
<g class="coast__shoal">
<path d="M1783.7 1352.2 L1782.7 1349.1 L1782.5 1347.0 L1743.1 1350.7 L1739.8 1341.2 L1737.8 1329.0 L1735.8 1316.6 L1734.2 1306.9 L1732.4 1295.9 L1732.5 1281.9 L1732.6 1271.9 L1732.7 1261.3 L1732.7 1255.7 L1734.5 1243.6 L1736.0 1232.9 L1738.0 1222.4 L1738.9 1217.6 L1741.3 1204.5 L1742.2 1183.5 L1742.5 1161.2 L1741.0 1144.6 L1740.0 1142.8 L1739.4 1130.2 L1739.2 1112.1 L1741.1 1092.3 L1739.7 1083.3 L1737.3 1081.3 L1735.0 1081.1 L1733.3 1079.0 L1733.6 1074.3 L1734.1 1067.5 L1736.3 1049.4 L1736.6 1040.2 L1736.8 1035.8 L1737.7 1021.9 L1732.1 1021.5 L1725.5 1020.8 L1728.1 1010.4 L1725.4 994.9 L1726.5 984.9 L1729.5 970.0 L1733.3 946.2 L1736.3 935.9 L1734.9 920.6 L1734.8 918.8 L1721.1 919.3 L1716.6 919.4 L1705.2 907.7 L1683.5 891.9 L1669.3 886.4 L1664.3 880.2 L1661.6 874.7 L1654.9 856.1 L1650.2 839.8 L1645.8 819.1 L1640.7 797.3 L1635.8 777.6 L1632.9 761.4 L1630.0 751.9 L1625.3 742.1 L1620.2 733.3 L1611.2 722.9 L1603.0 716.5 L1598.6 722.0 L1597.3 721.0 L1586.9 718.6 L1581.5 712.3 L1572.5 706.8 L1559.9 710.1 L1558.1 708.1 L1535.1 687.7 L1533.0 685.9 L1507.3 661.9 L1505.1 659.9 L1474.5 634.2 L1472.0 637.1 L1467.9 631.7 L1466.0 629.2 L1464.3 627.2 L1462.0 624.6 L1459.6 622.5 L1453.4 615.2 L1450.6 613.1 L1445.2 607.8 L1441.9 604.6 L1435.9 597.3 L1433.9 581.8 L1429.9 561.0 L1422.6 524.1 L1413.7 480.0 L1411.2 469.2 L1404.4 435.6 L1403.9 433.0 L1399.8 411.6 L1396.7 399.6 L1394.0 386.3 L1400.8 381.8 L1395.1 343.9 L1393.3 339.3 L1392.5 337.3 L1395.3 289.9 L1401.3 266.3 L1388.3 266.1 L1388.3 263.3 L1391.5 237.0 L1395.5 215.4 L1397.0 195.6 L1398.9 153.4 L1400.1 151.7 L1384.6 147.1 L1382.7 127.9 L1385.6 102.1 L1389.3 90.9 L1394.0 90.8 L1395.3 83.2 L1387.4 82.0 L1380.3 70.3 L1379.0 61.3 L1379.6 43.8 L1383.1 22.7 L1393.3 -9.4 L1403.6 -33.9 L1414.1 -55.9 L1421.0 -74.7 L1425.5 -92.7 L1428.4 -102.3 L1430.4 -114.6 L1430.2 -128.8 L1430.1 -132.0 L1420.2 -135.1 L1418.4 -174.1 L1428.4 -210.3 L1443.4 -255.0 L1453.9 -283.9 L1472.0 -318.7 L1483.4 -340.7"/>
</g>
<g class="coast__rings">
<circle cx="992.0" cy="500.0" r="200.0" data-m="250"/>
<circle cx="992.0" cy="500.0" r="400.0" data-m="500"/>
</g>
<g class="coast__ringlabels">
<text x="992.0" y="308.0" text-anchor="middle">250 м</text>
<text x="992.0" y="108.0" text-anchor="middle">500 м</text>
</g>
<g class="coast__street">
<path d="M750.6 -77.2 L750.3 -70.3 L795.6 72.8 L801.9 92.4 L803.2 96.3 L816.0 131.8 L824.7 159.2 L837.3 203.0 L853.5 247.2 L855.2 252.2 L859.1 265.2" style="--len:360"/>
<path d="M859.1 265.2 L861.1 271.3 L861.9 273.5 L881.6 330.1 L886.8 346.8 L926.5 453.6 L952.5 528.0 L966.3 566.9 L980.8 605.9 L997.3 650.5 L1001.7 661.4 L1004.2 667.9 L1008.2 675.4 L1014.1 683.7 L1015.5 685.6 L1040.4 720.2 L1054.1 739.4 L1084.6 781.0 L1134.0 841.3 L1136.2 843.6 L1146.4 863.4 L1150.9 873.8 L1182.3 961.5 L1183.6 965.2 L1230.5 1095.4 L1241.8 1127.5 L1244.1 1134.4 L1246.4 1141.4 L1270.3 1216.4 L1272.6 1223.4 L1280.5 1246.4 L1301.0 1315.8 L1307.3 1337.1" style="--len:1171"/>
</g>
<g class="coast__line">
<path d="M1783.7 1352.2 L1782.7 1349.1 L1782.5 1347.0 L1743.1 1350.7 L1739.8 1341.2 L1737.8 1329.0 L1735.8 1316.6 L1734.2 1306.9 L1732.4 1295.9 L1732.5 1281.9 L1732.6 1271.9 L1732.7 1261.3 L1732.7 1255.7 L1734.5 1243.6 L1736.0 1232.9 L1738.0 1222.4 L1738.9 1217.6 L1741.3 1204.5 L1742.2 1183.5 L1742.5 1161.2 L1741.0 1144.6 L1740.0 1142.8 L1739.4 1130.2 L1739.2 1112.1 L1741.1 1092.3 L1739.7 1083.3 L1737.3 1081.3 L1735.0 1081.1 L1733.3 1079.0 L1733.6 1074.3 L1734.1 1067.5 L1736.3 1049.4 L1736.6 1040.2 L1736.8 1035.8 L1737.7 1021.9 L1732.1 1021.5 L1725.5 1020.8 L1728.1 1010.4 L1725.4 994.9 L1726.5 984.9 L1729.5 970.0 L1733.3 946.2 L1736.3 935.9 L1734.9 920.6 L1734.8 918.8 L1721.1 919.3 L1716.6 919.4 L1705.2 907.7 L1683.5 891.9 L1669.3 886.4 L1664.3 880.2 L1661.6 874.7 L1654.9 856.1 L1650.2 839.8 L1645.8 819.1 L1640.7 797.3 L1635.8 777.6 L1632.9 761.4 L1630.0 751.9 L1625.3 742.1 L1620.2 733.3 L1611.2 722.9 L1603.0 716.5 L1598.6 722.0 L1597.3 721.0 L1586.9 718.6 L1581.5 712.3 L1572.5 706.8 L1559.9 710.1 L1558.1 708.1 L1535.1 687.7 L1533.0 685.9 L1507.3 661.9 L1505.1 659.9 L1474.5 634.2 L1472.0 637.1 L1467.9 631.7 L1466.0 629.2 L1464.3 627.2 L1462.0 624.6 L1459.6 622.5 L1453.4 615.2 L1450.6 613.1 L1445.2 607.8 L1441.9 604.6 L1435.9 597.3 L1433.9 581.8 L1429.9 561.0 L1422.6 524.1 L1413.7 480.0 L1411.2 469.2 L1404.4 435.6 L1403.9 433.0 L1399.8 411.6 L1396.7 399.6 L1394.0 386.3 L1400.8 381.8 L1395.1 343.9 L1393.3 339.3 L1392.5 337.3 L1395.3 289.9 L1401.3 266.3 L1388.3 266.1 L1388.3 263.3 L1391.5 237.0 L1395.5 215.4 L1397.0 195.6 L1398.9 153.4 L1400.1 151.7 L1384.6 147.1 L1382.7 127.9 L1385.6 102.1 L1389.3 90.9 L1394.0 90.8 L1395.3 83.2 L1387.4 82.0 L1380.3 70.3 L1379.0 61.3 L1379.6 43.8 L1383.1 22.7 L1393.3 -9.4 L1403.6 -33.9 L1414.1 -55.9 L1421.0 -74.7 L1425.5 -92.7 L1428.4 -102.3 L1430.4 -114.6 L1430.2 -128.8 L1430.1 -132.0 L1420.2 -135.1 L1418.4 -174.1 L1428.4 -210.3 L1443.4 -255.0 L1453.9 -283.9 L1472.0 -318.7 L1483.4 -340.7" style="--len:1999"/>
</g>
<g class="coast__marks">
<g class="mark" data-mark="fb29" transform="translate(970.4 485.4)"><circle class="mark__halo" r="34"/><circle class="mark__dot" r="7"/><title>Французький бульвар, 29</title></g>
<g class="mark" data-mark="fb29b" transform="translate(1013.8 513.6)"><circle class="mark__halo" r="34"/><circle class="mark__dot" r="7"/><title>Французький бульвар, 29Б</title></g>
</g></svg>